<?xml version="1.0" encoding="UTF-8" standalone="no" ?>
<!DOCTYPE svg PUBLIC "-//W3C//DTD SVG 1.1//EN" "http://www.w3.org/Graphics/SVG/1.1/DTD/svg11.dtd">
<svg xmlns="http://www.w3.org/2000/svg" xmlns:xlink="http://www.w3.org/1999/xlink" version="1.1" width="640" height="480" viewBox="0 0 640 480" xml:space="preserve">
<desc>Created with Fabric.js 3.6.6</desc>
<defs>
</defs>
<g transform="matrix(22.74 0 0 22.74 311.91 226.47)"  >
<g style=""   >
		<g transform="matrix(1 0 0 1 0.5 -3.17)" id="DESIGNS"  >
<path style="stroke: none; stroke-width: 1; stroke-dasharray: none; stroke-linecap: butt; stroke-dashoffset: 0; stroke-linejoin: miter; stroke-miterlimit: 4; fill: rgb(240,90,40); fill-rule: nonzero; opacity: 1;"  transform=" translate(-16.5, -12.83)" d="M 20.995 15.479 c 0.024 -0.712 -0.452 -1.438 -1.488 -1.978 v -1.321 c 1.201 -0.619 1.548 -1.395 1.488 -2.054 V 8.606 c -0.004 -0.668 -0.442 -1.337 -1.315 -1.839 c -1.767 -1.018 -4.623 -1.023 -6.379 -0.012 c -1.426 0.821 -1.295 1.835 -1.295 1.835 v 1.535 c -0.045 0.645 0.3 1.414 1.488 2.033 c 0 0 0 1.431 0 1.321 c -1.038 0.535 -1.513 1.259 -1.488 1.971 v 1.489 c -0.049 0.702 0.381 1.414 1.315 1.952 c 1.767 1.018 4.623 1.023 6.379 0.012 c 0.935 -0.539 1.36 -1.256 1.295 -1.964 V 15.479 z" stroke-linecap="round" />
</g>
		<g transform="matrix(1 0 0 1 0.5 -1.88)" id="DESIGNS"  >
<path style="stroke: none; stroke-width: 1; stroke-dasharray: none; stroke-linecap: butt; stroke-dashoffset: 0; stroke-linejoin: miter; stroke-miterlimit: 4; fill: rgb(190,30,45); fill-rule: nonzero; opacity: 1;"  transform=" translate(-16.5, -14.12)" d="M 20.995 15.421 v 1.519 c 0.065 0.707 -0.36 1.425 -1.295 1.964 c -1.756 1.011 -4.612 1.006 -6.379 -0.012 c -0.934 -0.538 -1.364 -1.25 -1.315 -1.952 v -1.535 c 0.004 0.665 0.432 1.331 1.315 1.839 c 1.767 1.018 4.623 1.023 6.379 0.012 C 20.578 16.75 20.998 16.086 20.995 15.421 z M 20.995 8.606 c 0.013 2.387 -5.004 3.362 -7.675 1.823 c -0.883 -0.509 -1.311 -1.175 -1.315 -1.839 v 1.535 l 0 0 c -0.045 0.645 0.3 1.414 1.488 2.033 v 1.782 h 0.006 c -0.015 0.456 0.275 0.916 0.881 1.265 c 1.178 0.679 3.082 0.682 4.253 0.008 c 0.607 -0.35 0.891 -0.813 0.866 -1.273 h 0.009 v -1.761 c 1.201 -0.619 1.548 -1.395 1.488 -2.054 l 0 0 V 8.606 z" stroke-linecap="round" />
</g>
		<g transform="matrix(1 0 0 1 0.5 7.29)" id="DESIGNS"  >
<path style="stroke: none; stroke-width: 1; stroke-dasharray: none; stroke-linecap: butt; stroke-dashoffset: 0; stroke-linejoin: miter; stroke-miterlimit: 4; fill: rgb(114,192,171); fill-rule: nonzero; opacity: 1;"  transform=" translate(-16.5, -23.29)" d="M 15.5 19.583 v 5.537 h 0.002 c 0 0 0.997 1.878 0.998 1.88 c 0.001 -0.001 0.999 -1.88 1 -1.88 v -2.828 c -0.389 -1.005 -0.881 -1.905 -1.463 -2.661 C 15.857 19.62 15.678 19.607 15.5 19.583 z" stroke-linecap="round" />
</g>
		<g transform="matrix(1 0 0 1 0.77 4.94)" id="DESIGNS"  >
<path style="stroke: none; stroke-width: 1; stroke-dasharray: none; stroke-linecap: butt; stroke-dashoffset: 0; stroke-linejoin: miter; stroke-miterlimit: 4; fill: rgb(86,144,128); fill-rule: nonzero; opacity: 1;"  transform=" translate(-16.77, -20.94)" d="M 16.037 19.631 c 0.582 0.755 1.074 1.656 1.463 2.661 v -2.701 C 17.019 19.652 16.527 19.662 16.037 19.631 z" stroke-linecap="round" />
</g>
</g>
</g>
</svg>